<svg width="17" height="16" viewBox="0 0 17 16" fill="none" xmlns="http://www.w3.org/2000/svg">
<path fill-rule="evenodd" clip-rule="evenodd" d="M12.4887 0H2.40566C1.92264 0 1.5 0.422642 1.5 0.90566V13.0415C1.5 13.1505 1.52153 13.2565 1.56042 13.3552V15.0943C1.56042 15.5773 1.98307 16 2.58684 16H14.3C14.8434 16 15.3265 15.5773 15.3265 15.0943V2.23393C15.3265 1.75091 14.9642 1.56978 14.4812 1.5094V14.249C14.4812 14.732 14.0585 15.0943 13.5755 15.0943H3.31137C2.82835 15.0943 2.40571 14.732 2.40571 14.249V13.9472H12.4887C12.9717 13.9472 13.3943 13.5245 13.3943 13.0415V0.90566C13.3943 0.422642 12.9717 0 12.4887 0ZM10.7377 1.99245H4.09623V4.28679H10.7377V1.99245Z" fill="#FF7200"/>
</svg>
