<svg width="16" height="12" viewBox="0 0 16 12" fill="none" xmlns="http://www.w3.org/2000/svg">
<path d="M0 0H16V12H0V0Z" fill="#3F9C35"/>
<path d="M0 0H16V8H0V0Z" fill="#ED2939"/>
<path d="M0 0H16V4H0V0Z" fill="#00B9E4"/>
<path d="M7.59736 7.79922C8.59148 7.79922 9.39736 6.99333 9.39736 5.99922C9.39736 5.00511 8.59148 4.19922 7.59736 4.19922C6.60325 4.19922 5.79736 5.00511 5.79736 5.99922C5.79736 6.99333 6.60325 7.79922 7.59736 7.79922Z" fill="white"/>
<path d="M7.99756 7.5C8.82599 7.5 9.49756 6.82843 9.49756 6C9.49756 5.17157 8.82599 4.5 7.99756 4.5C7.16913 4.5 6.49756 5.17157 6.49756 6C6.49756 6.82843 7.16913 7.5 7.99756 7.5Z" fill="#ED2939"/>
<path d="M9.59741 5L9.78991 5.5375L10.3049 5.2925L10.0599 5.81L10.5974 6L10.0599 6.1925L10.3049 6.7075L9.78991 6.4625L9.59741 7L9.40491 6.4625L8.88991 6.7075L9.13491 6.1925L8.59741 6L9.13491 5.8075L8.88991 5.2925L9.40491 5.5375L9.59741 5Z" fill="white"/>
</svg>
