<svg width="16" height="12" viewBox="0 0 16 12" fill="none" xmlns="http://www.w3.org/2000/svg">
<path fill-rule="evenodd" clip-rule="evenodd" d="M0 0H16V8H0V0Z" fill="#B20000"/>
<path fill-rule="evenodd" clip-rule="evenodd" d="M0 8H16V12H0V8Z" fill="#429F00"/>
<path fill-rule="evenodd" clip-rule="evenodd" d="M0 0H2.65809V12H0V0Z" fill="white"/>
<path fill-rule="evenodd" clip-rule="evenodd" d="M0.126465 0.203906H0.253041V0.407813H0.126465V0.203906ZM0.506193 0.203906H0.885921V0.407813H0.506193V0.203906ZM0.632769 0H0.759345V0.203906H0.632769V0ZM1.26565 0H1.39222V0.203906H1.26565V0ZM1.77195 0.203906H2.15168V0.407813H1.77195V0.203906ZM1.89853 0H2.0251V0.203906H1.89853V0ZM0.379617 0.407813H0.632769V0.609375H0.379617V0.407813ZM0.759345 0.407813H1.0125V0.609375H0.759345V0.407813ZM1.64538 0.407813H1.89853V0.609375H1.64538V0.407813ZM2.0251 0.407813H2.27826V0.609375H2.0251V0.407813ZM0.253041 0.609375H0.506193V0.813282H0.253041V0.609375ZM0.885921 0.609375H1.13907V0.813282H0.885921V0.609375ZM1.5188 0.609375H1.77195V0.813282H1.5188V0.609375ZM2.15168 0.609375H2.40483V0.813282H2.15168V0.609375ZM2.40483 0.203906H2.53141V0.407813H2.40483V0.203906ZM0.126465 0.813282H0.379617V1.01719H0.126465V0.813282ZM1.0125 0.813282H1.26565V1.01719H1.0125V0.813282ZM2.27826 0.813282H2.53141V1.01719H2.27826V0.813282ZM0.253041 1.42266H0.506193V1.62656H0.253041V1.42266ZM0.379617 1.62656H0.632769V1.83047H0.379617V1.62656ZM0.885921 1.425H1.13907V1.62656H0.885921V1.425ZM0.759345 1.62656H1.0125V1.83047H0.759345V1.62656ZM0.506193 1.83047H0.885921V2.03438H0.506193V1.83047Z" fill="#B20000"/>
<path fill-rule="evenodd" clip-rule="evenodd" d="M0.63288 2.03516H0.759456V2.23906H0.63288V2.03516ZM1.51891 1.42578H1.77206V1.62734H1.51891V1.42578ZM1.64549 1.62734H1.89864V1.83125H1.64549V1.62734ZM2.15179 1.42578H2.40494V1.62734H2.15179V1.42578ZM2.02522 1.62734H2.27837V1.83125H2.02522V1.62734ZM1.77206 1.83125H2.15179V2.03516H1.77206V1.83125ZM1.89864 2.03516H2.02522V2.23906H1.89864V2.03516ZM1.26576 1.82891H1.39234V2.03281H1.26576V1.82891ZM0 1.82891H0.126576V2.03281H0V1.82891ZM2.53152 1.82891H2.65809V2.03281H2.53152V1.82891ZM0.63288 2.84609H0.759456V3.05H0.63288V2.84609ZM0.506304 3.05234H0.886032V3.25391H0.506304V3.05234ZM0.379728 3.25391H1.01261V3.45781H0.379728V3.25391ZM1.89864 2.84844H2.02522V3.05234H1.89864V2.84844ZM1.77206 3.05234H2.15179V3.25391H1.77206V3.05234ZM1.64549 3.25391H2.27837V3.45781H1.64549V3.25391ZM1.77206 4.27109H2.40494V4.475H1.77206V4.27109ZM1.51891 3.45781H2.40494V3.66172H1.51891V3.45781ZM0.253152 3.45781H1.13918V3.66172H0.253152V3.45781ZM0.379728 4.475H0.759456V4.67891H0.379728V4.475ZM0.253152 4.27109H0.886032V4.475H0.253152V4.27109ZM2.02522 3.86797H2.65809V4.07187H2.02522V3.86797ZM1.89864 4.47734H2.27837V4.68125H1.89864V4.47734Z" fill="#B20000"/>
<path fill-rule="evenodd" clip-rule="evenodd" d="M0.506304 4.67734H0.63288V4.88125H0.506304V4.67734ZM2.02522 4.67734H2.15179V4.88125H2.02522V4.67734ZM0 3.86406H0.63288V4.06797H0V3.86406ZM1.13918 4.26953H1.51891V4.47344H1.13918V4.26953ZM1.26576 4.47578H1.39234V4.67969H1.26576V4.47578ZM0.886032 3.86641H1.77206V4.07031H0.886032V3.86641ZM1.39234 0.8125H1.64549V1.01641H1.39234V0.8125ZM1.13918 1.01641H1.51891V1.22031H1.13918V1.01641ZM1.01261 1.22031H1.26576V1.42187H1.01261V1.22031ZM1.39234 1.22031H1.64549V1.42187H1.39234V1.22031ZM0 1.01641H0.253152V1.22031H0V1.01641ZM0.126576 1.22031H0.379728V1.42187H0.126576V1.22031ZM2.40494 1.01641H2.65809V1.21797H2.40494V1.01641ZM2.27837 1.21797H2.53152V1.41953H2.27837V1.21797ZM0 3.04609H0.126576V3.25H0V3.04609ZM2.53152 3.04609H2.65809V3.25H2.53152V3.04609ZM1.13918 4.675H1.51891V4.87891H1.13918V4.675ZM1.01261 4.87891H1.26576V5.08047H1.01261V4.87891ZM1.39234 4.87891H1.64549V5.08047H1.39234V4.87891ZM0.886032 5.08047H1.13918V5.28437H0.886032V5.08047ZM1.51891 5.08047H1.77206V5.28437H1.51891V5.08047ZM0.759456 5.28437H1.01261V5.48828H0.759456V5.28437ZM1.64549 5.28437H1.89864V5.48828H1.64549V5.28437ZM0.63288 5.49062H0.886032V5.69453H0.63288V5.49062ZM1.77206 5.49062H2.02522V5.69453H1.77206V5.49062ZM0.379728 5.69453H0.759456V5.89844H0.379728V5.69453ZM1.89864 5.69453H2.27837V5.89844H1.89864V5.69453ZM2.15179 5.49062H2.40494V5.69453H2.15179V5.49062ZM2.27837 5.28672H2.53152V5.49062H2.27837V5.28672ZM2.40494 5.08281H2.65809V5.28672H2.40494V5.08281ZM0.253152 5.49062H0.506304V5.69453H0.253152V5.49062ZM0.126576 5.28672H0.379728V5.49062H0.126576V5.28672ZM0 5.08516H0.253152V5.28906H0V5.08516ZM0.506304 5.90078H0.63288V6.10234H0.506304V5.90078ZM2.02522 5.90078H2.15179V6.10234H2.02522V5.90078ZM1.26576 5.29141H1.39234V5.49297H1.26576V5.29141ZM0.886032 5.90078H1.01261V6.10234H0.886032V5.90078ZM1.64549 5.90078H1.77206V6.10234H1.64549V5.90078ZM1.26576 5.90078H1.39234V6.10234H1.26576V5.90078ZM0 5.90078H0.126576V6.10234H0L0 5.90078ZM2.53152 5.90078H2.65809V6.10234H2.53152V5.90078ZM1.26576 3.05078H1.39234V3.25234H1.26576V3.05078ZM0.63288 1.01641H0.759456V1.22031H0.63288V1.01641ZM1.89864 1.01641H2.02522V1.22031H1.89864V1.01641ZM1.13918 2.43906H1.51891V2.64297H1.13918V2.43906ZM0.886032 2.64297H1.26576V2.84687H0.886032V2.64297ZM1.01261 2.84687H1.13918V3.05078H1.01261V2.84687ZM0.759456 2.43906H1.01261V2.64297H0.759456V2.43906ZM0.886032 2.2375H1.26576V2.43906H0.886032V2.2375ZM1.01261 2.03359H1.13918V2.2375H1.01261V2.03359ZM1.39234 2.2375H1.77206V2.43906H1.39234V2.2375ZM1.51891 2.03359H1.64549V2.2375H1.51891V2.03359ZM1.64549 2.43906H1.89864V2.64297H1.64549V2.43906ZM1.39234 2.64297H1.77206V2.84687H1.39234V2.64297ZM1.51891 2.84687H1.64549V3.05078H1.51891V2.84687ZM2.02522 2.43906H2.27837V2.64297H2.02522V2.43906ZM2.15179 2.2375H2.53152V2.43906H2.15179V2.2375ZM2.40494 2.43906H2.65809V2.64297H2.40494V2.43906ZM2.15179 2.64297H2.53152V2.84687H2.15179V2.64297ZM2.27837 2.84687H2.40494V3.05078H2.27837V2.84687ZM2.27837 2.03359H2.40494V2.2375H2.27837V2.03359ZM0 2.43672H0.253152V2.64062H0V2.43672ZM0.126576 2.23516H0.506304V2.43672H0.126576V2.23516ZM0.379728 2.43672H0.63288V2.64062H0.379728V2.43672ZM0.126576 2.64062H0.506304V2.84453H0.126576V2.64062Z" fill="#B20000"/>
<path fill-rule="evenodd" clip-rule="evenodd" d="M0.253152 2.84844H0.379728V3.05234H0.253152V2.84844ZM0.253152 2.03516H0.379728V2.23906H0.253152V2.03516ZM0.126576 3.66172H0.63288V3.86562H0.126576V3.66172ZM0.759456 3.66172H1.26576V3.86562H0.759456V3.66172ZM1.39234 3.66172H1.89864V3.86562H1.39234V3.66172ZM2.02522 3.66172H2.53152V3.86562H2.02522V3.66172ZM1.01261 4.06953H1.64549V4.27109H1.01261V4.06953ZM0.126576 4.06953H0.759456V4.27109H0.126576V4.06953ZM1.89864 4.06953H2.53152V4.27109H1.89864V4.06953ZM2.53152 4.88281H2.65809V5.08437H2.53152V4.88281ZM0 4.88281H0.126576V5.08437H0V4.88281ZM0.126576 11.7969H0.253152V11.5953H0.126576V11.7969ZM0.506304 11.7969H0.886032V11.5953H0.506304V11.7969ZM0.63288 12.0008H0.759456V11.7969H0.63288V12.0008ZM1.26576 12.0008H1.39234V11.7969H1.26576V12.0008ZM1.77206 11.7969H2.15179V11.593H1.77206V11.7969ZM1.89864 12.0008H2.02522V11.7969H1.89864V12.0008ZM0.379728 11.593H0.63288V11.3914H0.379728V11.593ZM0.759456 11.593H1.01261V11.3914H0.759456V11.593ZM1.64549 11.593H1.89864V11.3914H1.64549V11.593ZM2.02522 11.593H2.27837V11.3914H2.02522V11.593ZM0.886032 11.3914H1.13918V11.1875H0.886032V11.3914ZM1.51891 11.3914H1.77206V11.1875H1.51891V11.3914ZM2.15179 11.3914H2.40494V11.1875H2.15179V11.3914ZM2.40494 11.7969H2.53152V11.593H2.40494V11.7969ZM0.126576 11.1875H0.379728V10.9836H0.126576V11.1875ZM1.01261 11.1875H1.26576V10.9836H1.01261V11.1875ZM2.27837 11.1875H2.53152V10.9836H2.27837V11.1875ZM0.253152 10.5781H0.506304V10.3742H0.253152V10.5781ZM0.379728 10.3742H0.63288V10.1703H0.379728V10.3742ZM0.886032 10.5781H1.13918V10.3742H0.886032V10.5781ZM0.759456 10.3742H1.01261V10.1703H0.759456V10.3742ZM0.506304 10.1703H0.886032V9.96641H0.506304V10.1703ZM0.63288 9.96641H0.759456V9.76484H0.63288V9.96641ZM1.51891 10.5758H1.77206V10.3742H1.51891V10.5758ZM1.64549 10.3742H1.89864V10.1703H1.64549V10.3742ZM2.15179 10.5781H2.40494V10.3742H2.15179V10.5781ZM2.02522 10.3742H2.27837V10.1703H2.02522V10.3742ZM1.77206 10.1703H2.15179V9.96641H1.77206V10.1703ZM1.89864 9.96641H2.02522V9.76484H1.89864V9.96641ZM1.26576 10.1727H1.39234V9.96875H1.26576V10.1727ZM0 10.1727H0.126576V9.96875H0V10.1727ZM2.53152 10.1727H2.65809V9.96875H2.53152V10.1727ZM0.63288 9.15547H0.759456V8.95156H0.63288V9.15547ZM0.506304 8.94922H0.886032V8.74766H0.506304V8.94922ZM0.379728 8.74766H1.01261V8.54375H0.379728V8.74766ZM1.89864 9.15313H2.02522V8.94922H1.89864V9.15313Z" fill="#B20000"/>
<path fill-rule="evenodd" clip-rule="evenodd" d="M1.77206 8.94805H2.15179V8.74649H1.77206V8.94805ZM1.64549 8.74649H2.27837V8.54258H1.64549V8.74649ZM1.77206 7.7293H2.40494V7.52305H1.77206V7.7293ZM1.51891 8.54258H2.40494V8.33867H1.51891V8.54258ZM0.253152 8.54258H1.13918V8.33867H0.253152V8.54258ZM0.379728 7.52539H0.759456V7.32148H0.379728V7.52539ZM0.253152 7.7293H0.886032V7.52305H0.253152V7.7293ZM2.02522 8.13242H2.65809V7.92852H2.02522V8.13242ZM1.89864 7.52305H2.27837V7.31914H1.89864V7.52305ZM0 8.13242H0.63288V7.92852H0V8.13242ZM1.13918 7.72695H1.51891V7.52305H1.13918V7.72695ZM1.26576 7.52305H1.39234V7.31914H1.26576V7.52305ZM0.886032 8.13242H1.77206V7.92852H0.886032V8.13242ZM1.39234 11.184H1.64549V10.9801H1.39234V11.184ZM1.13918 10.9801H1.51891V10.7809H1.13918V10.9801ZM1.01261 10.7762H1.26576V10.5723H1.01261V10.7762ZM1.39234 10.7762H1.64549V10.5723H1.39234V10.7762ZM0 10.9824H0.253152V10.7809H0V10.9824ZM0.126576 10.7785H0.379728V10.577H0.126576V10.7785ZM2.40494 10.9824H2.65809V10.7809H2.40494V10.9824ZM2.27837 10.7785H2.53152V10.577H2.27837V10.7785ZM0 8.95274H0.126576V8.74883H0V8.95274ZM2.53152 8.95274H2.65809V8.74883H2.53152V8.95274ZM1.01261 7.11992H1.26576V6.91836H1.01261V7.11992ZM1.39234 7.11992H1.64549V6.91836H1.39234V7.11992ZM0.886032 6.91836H1.13918V6.71445H0.886032V6.91836ZM1.51891 6.91836H1.77206V6.71445H1.51891V6.91836ZM0.759456 6.71445H1.01261V6.51055H0.759456V6.71445ZM1.64549 6.71445H1.89864V6.51055H1.64549V6.71445ZM0.63288 6.5082H0.886032V6.3043H0.63288V6.5082ZM1.77206 6.5082H2.02522V6.3043H1.77206V6.5082ZM0.379728 6.3043H0.759456V6.10039H0.379728V6.3043ZM1.89864 6.3043H2.27837V6.10039H1.89864V6.3043ZM2.15179 6.5082H2.40494V6.3043H2.15179V6.5082ZM2.27837 6.71211H2.53152V6.5082H2.27837V6.71211ZM2.40494 6.91602H2.65809V6.71211H2.40494V6.91602ZM0.253152 6.5082H0.506304V6.3043H0.253152V6.5082ZM0.126576 6.71211H0.379728V6.5082H0.126576V6.71211ZM0 6.91367H0.253152V6.70977H0V6.91367ZM0.506304 6.09805H0.63288V5.89648H0.506304V6.09805ZM1.26576 6.70742H1.39234V6.50586H1.26576V6.70742ZM1.26576 8.9457H1.39234V8.74414H1.26576V8.9457ZM0.63288 10.9801H0.759456V10.7809H0.63288V10.9801ZM1.89864 10.9801H2.02522V10.7809H1.89864V10.9801ZM1.13918 9.56211H1.51891V9.3582H1.13918V9.56211ZM0.886032 9.3582H1.26576V9.1543H0.886032V9.3582ZM1.01261 9.1543H1.13918V8.95039H1.01261V9.1543ZM0.759456 9.56211H1.01261V9.3582H0.759456V9.56211ZM0.886032 9.76133H1.26576V9.56211H0.886032V9.76133ZM1.01261 9.96524H1.13918V9.76367H1.01261V9.96524ZM1.39234 9.76133H1.77206V9.56211H1.39234V9.76133ZM1.51891 9.96524H1.64549V9.76367H1.51891V9.96524ZM1.64549 9.55977H1.89864V9.35586H1.64549V9.55977ZM1.39234 9.35586H1.77206V9.15195H1.39234V9.35586ZM1.51891 9.15195H1.64549V8.94805H1.51891V9.15195ZM2.02522 9.56211H2.27837V9.3582H2.02522V9.56211ZM2.15179 9.76133H2.53152V9.56211H2.15179V9.76133ZM2.40494 9.55977H2.65809V9.35586H2.40494V9.55977ZM2.15179 9.35586H2.53152V9.15195H2.15179V9.35586ZM2.27837 9.15195H2.40494V8.94805H2.27837V9.15195ZM2.27837 9.96524H2.40494V9.76367H2.27837V9.96524ZM0 9.56211H0.253152V9.3582H0V9.56211ZM0.126576 9.76133H0.506304V9.56211H0.126576V9.76133Z" fill="#B20000"/>
<path fill-rule="evenodd" clip-rule="evenodd" d="M0.379728 9.56016H0.63288V9.35625H0.379728V9.56016ZM0.126576 9.35625H0.506304V9.15234H0.126576V9.35625ZM0.253152 9.15234H0.379728V8.94844H0.253152V9.15234ZM0.253152 9.96562H0.379728V9.76406H0.253152V9.96562ZM0.126576 8.33906H0.63288V8.13516H0.126576V8.33906ZM0.759456 8.33906H1.26576V8.13516H0.759456V8.33906ZM1.39234 8.33906H1.89864V8.13516H1.39234V8.33906ZM2.02522 8.33906H2.53152V8.13516H2.02522V8.33906ZM1.01261 7.93125H1.64549V7.72969H1.01261V7.93125ZM0.126576 7.93125H0.759456V7.72969H0.126576V7.93125ZM1.89864 7.93125H2.53152V7.72969H1.89864V7.93125ZM2.53152 7.12031H2.65809V6.91406H2.53152V7.12031ZM0 7.12031H0.126576V6.91406H0V7.12031ZM1.13918 6.10078H1.26576V6.30469H1.13918V6.10078ZM1.39234 6.10078H1.51891V6.30469H1.39234V6.10078ZM1.39234 5.69531H1.51891V5.89922H1.39234V5.69531ZM1.13918 5.69531H1.26576V5.89922H1.13918V5.69531ZM0.253152 11.1867H0.506304V11.3906H0.253152V11.1867ZM2.02522 7.32187H2.15179V7.11797H2.02522V7.32187ZM0.506304 7.32187H0.63288V7.11797H0.506304V7.32187ZM1.13918 7.11797H1.51891V7.32187H1.13918V7.11797Z" fill="#B20000"/>
</svg>
