<svg width="16" height="16" viewBox="0 0 16 16" fill="none" xmlns="http://www.w3.org/2000/svg">
    <path fill-rule="evenodd" clip-rule="evenodd" d="M6.58603 10.8995L7.29314 11.6066C7.68366 11.9971 8.31683 11.9971 8.70735 11.6066L9.41446 10.8995L12.95 7.36397C13.3405 6.97345 13.3405 6.34028 12.95 5.94976C12.5595 5.55924 11.9263 5.55924 11.5358 5.94976L9.00025 8.48529V0.999999C9.00025 0.447714 8.55253 0 8.00025 0C7.44796 0 7.00025 0.447715 7.00025 0.999999V8.48529L4.46471 5.94976C4.07419 5.55924 3.44102 5.55924 3.0505 5.94976C2.65997 6.34028 2.65997 6.97345 3.0505 7.36397L6.58603 10.8995ZM2 14C1.44772 14 1 14.4477 1 15C1 15.5523 1.44772 16 2 16H14C14.5523 16 15 15.5523 15 15C15 14.4477 14.5523 14 14 14H2Z" fill="#9A9CA3"/>
</svg>
