<svg width="16" height="16" viewBox="0 0 16 16" fill="none" xmlns="http://www.w3.org/2000/svg">
<path fill-rule="evenodd" clip-rule="evenodd" d="M11.4985 12.4215L13.0769 13.9999L14.4911 12.5857L3.41422 1.50879L2 2.923L3.40832 4.33132C1.34719 5.93129 0 8 0 8C0 8 3.58172 13.5 8 13.5C9.25456 13.5 10.4417 13.0566 11.4985 12.4215ZM10.0286 10.9516L8.87563 9.79863C8.61117 9.92762 8.31404 10 8 10C6.89543 10 6 9.10457 6 8C6 7.68596 6.07238 7.38882 6.20137 7.12437L4.83583 5.75883C4.45538 6.03953 4.08187 6.35692 3.72047 6.70016C3.24541 7.15136 2.83449 7.6063 2.50595 8C2.83449 8.3937 3.24541 8.84864 3.72047 9.29984C5.06806 10.5797 6.58407 11.5 8 11.5C8.66343 11.5 9.34883 11.298 10.0286 10.9516ZM8 2.5C7.72864 2.5 7.46044 2.52075 7.19603 2.55969L9.44413 4.78781C10.4111 5.15575 11.3826 5.8483 12.2795 6.70016C12.7546 7.15136 13.1655 7.6063 13.494 8C13.3794 8.13739 13.2547 8.28223 13.1208 8.43178L14.5429 9.84126C15.4609 8.82789 16 8 16 8C16 8 12.4183 2.5 8 2.5Z" fill="#9A9CA3"/>
</svg>
