<svg width="16" height="12" viewBox="0 0 16 12" fill="none" xmlns="http://www.w3.org/2000/svg">
<path fill-rule="evenodd" clip-rule="evenodd" d="M0 0H16V12H0V0Z" fill="#6FDCFF"/>
<path fill-rule="evenodd" clip-rule="evenodd" d="M1.50502 11.676C1.58752 11.756 1.56002 11.8885 1.78752 11.871C2.13252 11.871 2.14252 11.661 2.14252 11.5135C2.14252 11.366 1.62502 11.161 1.60002 10.9435C1.57502 10.726 1.72002 10.6685 1.84002 10.6685C1.95752 10.6685 2.04002 10.736 2.04002 10.796C2.04002 10.856 1.98502 10.876 1.90002 10.876C1.81502 10.876 1.93752 10.8335 1.86502 10.801C1.79252 10.7685 1.74502 10.851 1.74502 10.901C1.74502 10.956 1.92502 10.971 2.04502 10.9335C2.07002 11.051 2.08002 11.0585 1.91252 11.2585C2.03252 11.181 2.04252 11.1635 2.17502 11.2085C2.04252 11.0935 2.14252 10.8635 2.14502 10.806C2.14752 10.7485 2.12002 10.6785 2.07002 10.6435C1.97252 10.556 1.76502 10.551 1.64002 10.6085C1.45752 10.6885 1.44752 10.9285 1.49502 11.0085L2.00002 11.5185C2.03502 11.5785 2.05002 11.7485 1.83502 11.756C1.61002 11.7735 1.53002 11.466 1.49002 11.3635C1.43752 11.476 1.37752 11.7835 1.15002 11.766C0.93502 11.7585 0.89502 11.591 0.93002 11.5285L1.44752 11.0035C1.49752 10.9235 1.48752 10.6835 1.30502 10.6035C1.18002 10.546 0.97252 10.5535 0.87752 10.6385C0.82252 10.6735 0.79252 10.741 0.79752 10.801C0.80252 10.861 0.90002 11.0885 0.77002 11.201C0.90002 11.1585 0.91252 11.176 1.03252 11.251C0.86502 11.0535 0.87752 11.046 0.90002 10.926C1.02002 10.966 1.20002 10.951 1.20002 10.8985C1.20002 10.846 1.15002 10.7585 1.07752 10.7935C1.00752 10.8285 1.12752 10.871 1.04252 10.871C0.96002 10.871 0.90002 10.8535 0.90002 10.796C0.90002 10.7385 0.98252 10.6635 1.10252 10.6635C1.22252 10.6635 1.36502 10.7235 1.34002 10.941C1.31502 11.1585 0.79002 11.3935 0.79002 11.541C0.79002 11.691 0.82502 11.8685 1.17002 11.8685C1.39502 11.886 1.42252 11.7535 1.50502 11.6735V11.676Z" fill="#FFE400"/>
<path fill-rule="evenodd" clip-rule="evenodd" d="M1.47743 8.58389C1.55993 8.50389 1.62743 8.26889 1.85243 8.28389C2.19743 8.28389 2.32743 8.47639 2.32743 8.62389C2.32743 8.77139 1.62743 9.97389 1.60243 10.1914C1.57743 10.4089 1.72243 10.4689 1.83993 10.4689C1.95993 10.4689 2.04243 10.4014 2.04243 10.3389C2.04243 10.2764 1.98243 10.2639 1.89993 10.2639C1.81743 10.2639 1.93493 10.3064 1.86493 10.3389C1.79493 10.3714 1.74493 10.2889 1.74493 10.2364C1.74493 10.1839 1.92493 10.1664 2.04493 10.2064C2.06743 10.0889 2.07743 10.0814 1.91243 9.88139C2.03243 9.95639 2.04243 9.97639 2.17493 9.93139C2.04243 10.0464 2.13993 10.2739 2.14493 10.3314C2.14993 10.3889 2.11993 10.4614 2.06743 10.4964C1.97243 10.5839 1.76243 10.5864 1.63743 10.5314C1.45743 10.4489 1.44743 10.2114 1.49493 10.1314L2.17493 8.66639C2.21243 8.60639 2.11743 8.40639 1.90243 8.39889C1.67743 8.38139 1.59993 8.61889 1.55993 8.72139L1.86743 8.69639C1.86743 8.69639 1.87993 8.74639 1.86743 8.77639C1.76426 8.78393 1.6616 8.79728 1.55993 8.81639L1.54743 8.97139H1.69743L1.68743 9.04139C1.68743 9.04139 1.55993 9.03139 1.54743 9.04139C1.53493 9.04889 1.52243 9.19639 1.52243 9.19639C1.52243 9.19639 1.49743 9.20639 1.47243 9.20639C1.44743 9.20639 1.42243 9.19639 1.42243 9.19639C1.42243 9.19639 1.41243 9.04889 1.39993 9.04139C1.38743 9.03139 1.25993 9.04139 1.25993 9.04139L1.24743 8.97139H1.39993L1.38743 8.81639C1.38743 8.81639 1.23743 8.78639 1.07993 8.77639C1.06993 8.74639 1.07993 8.69889 1.07993 8.69889L1.38743 8.72139C1.34743 8.61889 1.26993 8.38139 1.04493 8.39639C0.829932 8.40639 0.734932 8.60639 0.769932 8.66639L1.44993 10.1314C1.49743 10.2089 1.48743 10.4489 1.30743 10.5314C1.18243 10.5864 0.972432 10.5814 0.877432 10.4964C0.824932 10.4614 0.794932 10.3914 0.799932 10.3339C0.804932 10.2764 0.899932 10.0439 0.769932 9.93389C0.902432 9.97639 0.914932 9.95889 1.03243 9.88139C0.867432 10.0814 0.877432 10.0889 0.902432 10.2064C1.01993 10.1664 1.19993 10.1814 1.19993 10.2364C1.19993 10.2864 1.14993 10.3739 1.07993 10.3389C1.00993 10.3039 1.12993 10.2639 1.04493 10.2639C0.962432 10.2639 0.902432 10.2789 0.902432 10.3389C0.902432 10.3989 0.984932 10.4689 1.10243 10.4689C1.21993 10.4689 1.36493 10.4089 1.34243 10.1939C1.31743 9.97639 0.617432 8.76889 0.617432 8.62389C0.617432 8.47389 0.747432 8.28639 1.09243 8.28639C1.31743 8.26889 1.39993 8.50389 1.47993 8.58389H1.47743Z" fill="#FFE400"/>
<path fill-rule="evenodd" clip-rule="evenodd" d="M1.47743 7.98553C1.55993 8.06553 1.62743 8.30053 1.85243 8.28553C2.19743 8.28553 2.32743 8.09303 2.32743 7.94553C2.32743 7.79803 1.62743 6.59553 1.60243 6.37803C1.57743 6.16053 1.72243 6.10053 1.83993 6.10053C1.95993 6.10053 2.04243 6.16803 2.04243 6.23053C2.04243 6.29303 1.98243 6.30553 1.89993 6.30553C1.81743 6.30553 1.93493 6.26553 1.86493 6.23053C1.79493 6.19553 1.74493 6.28053 1.74493 6.33303C1.74493 6.38553 1.92493 6.40303 2.04493 6.36303C2.06743 6.48053 2.07743 6.48803 1.91243 6.68803C2.03243 6.61303 2.04243 6.59303 2.17493 6.63803C2.04243 6.52303 2.13993 6.29553 2.14493 6.23803C2.14993 6.18053 2.11993 6.10803 2.06743 6.07303C1.97243 5.98803 1.76243 5.98303 1.63743 6.03803C1.45743 6.12053 1.44743 6.35803 1.49493 6.43803L2.17493 7.90053C2.21243 7.96053 2.11743 8.16053 1.90243 8.16803C1.67743 8.18553 1.59993 7.94803 1.55993 7.84553L1.86743 7.87053C1.86743 7.87053 1.87993 7.82053 1.86743 7.79053C1.76426 7.78299 1.6616 7.76964 1.55993 7.75053L1.54743 7.59553H1.69743L1.68743 7.52553C1.68743 7.52553 1.55993 7.53553 1.54743 7.52553C1.53493 7.51803 1.52243 7.37053 1.52243 7.37053C1.52243 7.37053 1.49743 7.36053 1.47243 7.36053C1.44743 7.36053 1.42243 7.37053 1.42243 7.37053C1.42243 7.37053 1.41243 7.51803 1.39993 7.52553C1.38743 7.53553 1.25993 7.52553 1.25993 7.52553L1.24743 7.59553H1.39993L1.38743 7.75053C1.38743 7.75053 1.23743 7.78053 1.07993 7.79053C1.06993 7.82053 1.07993 7.86803 1.07993 7.86803L1.38743 7.84553C1.34743 7.94803 1.26993 8.18553 1.04493 8.17053C0.829932 8.16053 0.734932 7.96053 0.769932 7.90053L1.44993 6.43803C1.49743 6.35803 1.48743 6.12053 1.30743 6.03803C1.18243 5.98303 0.972432 5.98803 0.877432 6.07303C0.824932 6.10803 0.794932 6.17803 0.799932 6.23553C0.804932 6.29303 0.899932 6.52303 0.769932 6.63553C0.902432 6.59303 0.914932 6.61053 1.03243 6.68803C0.867432 6.48803 0.877432 6.48053 0.902432 6.36303C1.01993 6.40303 1.19993 6.38803 1.19993 6.33303C1.19993 6.28303 1.14993 6.19553 1.07993 6.23053C1.00993 6.26553 1.12993 6.30553 1.04493 6.30553C0.962432 6.30553 0.902432 6.29053 0.902432 6.23053C0.902432 6.17053 0.984932 6.10053 1.10243 6.10053C1.21993 6.10053 1.36493 6.16053 1.34243 6.37553C1.31743 6.59303 0.617432 7.80053 0.617432 7.94553C0.617432 8.09553 0.747432 8.28303 1.09243 8.28303C1.31743 8.30053 1.39993 8.06553 1.47993 7.98553H1.47743Z" fill="#FFE400"/>
<path fill-rule="evenodd" clip-rule="evenodd" d="M1.47743 4.01553C1.55993 3.93553 1.62743 3.70053 1.85243 3.71553C2.19743 3.71553 2.32743 3.90803 2.32743 4.05553C2.32743 4.20303 1.62743 5.40553 1.60243 5.62553C1.57743 5.84053 1.72243 5.90053 1.83993 5.90053C1.95993 5.90053 2.04243 5.83303 2.04243 5.77303C2.04243 5.71303 1.98243 5.69303 1.89993 5.69303C1.81743 5.69303 1.93493 5.73803 1.86493 5.77303C1.79493 5.80803 1.74493 5.72053 1.74493 5.66803C1.74493 5.61803 1.92493 5.59803 2.04493 5.63803C2.06743 5.52053 2.07743 5.51303 1.91243 5.31303C2.03243 5.39053 2.04243 5.40803 2.17493 5.36303C2.04243 5.47803 2.13993 5.70803 2.14493 5.76303C2.14993 5.81803 2.11993 5.89303 2.06743 5.92803C1.97243 6.01553 1.76243 6.01803 1.63743 5.96303C1.45743 5.88053 1.44743 5.64303 1.49493 5.56303L2.17493 4.10053C2.21243 4.04053 2.11743 3.84053 1.90243 3.83303C1.67743 3.81553 1.59993 4.05303 1.55993 4.15553L1.86743 4.13053C1.86743 4.13053 1.87993 4.18053 1.86743 4.21053C1.70743 4.22053 1.55993 4.25053 1.55993 4.25053L1.54743 4.40553H1.69743L1.68743 4.47553C1.68743 4.47553 1.55993 4.46803 1.54743 4.47553C1.53493 4.48303 1.52243 4.63303 1.52243 4.63303C1.52243 4.63303 1.49743 4.64053 1.47243 4.64053C1.44743 4.64053 1.42243 4.63303 1.42243 4.63303C1.42243 4.63303 1.41243 4.48303 1.39993 4.47553C1.38743 4.46803 1.25993 4.47553 1.25993 4.47553L1.24743 4.40553H1.39993L1.38743 4.25053C1.38743 4.25053 1.23743 4.22053 1.07993 4.21053C1.06993 4.18053 1.07993 4.13303 1.07993 4.13303L1.38743 4.15553C1.34743 4.05303 1.26993 3.81553 1.04493 3.83053C0.829932 3.84053 0.734932 4.04053 0.769932 4.10053L1.44993 5.56303C1.49743 5.64303 1.48743 5.88053 1.30743 5.96303C1.18243 6.01803 0.972432 6.01303 0.877432 5.92803C0.824932 5.89303 0.794932 5.82303 0.799932 5.76553C0.804932 5.70803 0.899932 5.47803 0.769932 5.36553C0.902432 5.40803 0.914932 5.39053 1.03243 5.31303C0.867432 5.51303 0.877432 5.52053 0.902432 5.63803C1.01993 5.59803 1.19993 5.61553 1.19993 5.66803C1.19993 5.71803 1.14993 5.80553 1.07993 5.77053C1.00993 5.73803 1.12993 5.69553 1.04493 5.69553C0.962432 5.69553 0.902432 5.71053 0.902432 5.77053C0.902432 5.83053 0.984932 5.90053 1.10243 5.90053C1.21993 5.90053 1.36493 5.84053 1.34243 5.62553C1.31743 5.40803 0.617432 4.20303 0.617432 4.05553C0.617432 3.90803 0.747432 3.71803 1.09243 3.71803C1.31743 3.70053 1.39993 3.93553 1.47993 4.01803L1.47743 4.01553Z" fill="#FFE400"/>
<path fill-rule="evenodd" clip-rule="evenodd" d="M1.47743 3.41717C1.55993 3.49717 1.62743 3.73467 1.85243 3.71717C2.19743 3.71717 2.32743 3.52467 2.32743 3.37717C2.32743 3.22967 1.62743 2.02717 1.60243 1.80967C1.57743 1.59217 1.72243 1.53217 1.83993 1.53217C1.95993 1.53217 2.04243 1.60217 2.04243 1.66217C2.04243 1.72217 1.98243 1.73967 1.89993 1.73967C1.81743 1.73967 1.93493 1.69717 1.86493 1.66217C1.79493 1.62717 1.74493 1.71217 1.74493 1.76467C1.74493 1.81717 1.92493 1.83467 2.04493 1.79467C2.06743 1.91217 2.07743 1.91967 1.91243 2.11967C2.03243 2.04467 2.04243 2.02467 2.17493 2.06967C2.04243 1.95717 2.13993 1.72717 2.14493 1.66967C2.14993 1.61217 2.11993 1.53967 2.06743 1.50467C1.97243 1.41967 1.76243 1.41467 1.63743 1.47217C1.45743 1.55217 1.44743 1.79217 1.49493 1.86967L2.17493 3.33467C2.21243 3.39467 2.11743 3.59467 1.90243 3.60467C1.67743 3.61967 1.59993 3.38467 1.55993 3.27967L1.86743 3.30467C1.86743 3.30467 1.87993 3.25467 1.86743 3.22467C1.76432 3.21788 1.66166 3.20536 1.55993 3.18717L1.54743 3.02967H1.69743L1.68743 2.95967C1.68743 2.95967 1.55993 2.96967 1.54743 2.95967C1.53493 2.95217 1.52243 2.80467 1.52243 2.80467C1.52243 2.80467 1.49743 2.79467 1.47243 2.79467C1.44743 2.79467 1.42243 2.80467 1.42243 2.80467C1.42243 2.80467 1.41243 2.95217 1.39993 2.95967C1.38743 2.96967 1.25993 2.95967 1.25993 2.95967L1.24743 3.02967H1.39993L1.38743 3.18717C1.38743 3.18717 1.23743 3.21467 1.07993 3.22467C1.06993 3.25717 1.07993 3.30467 1.07993 3.30467L1.38743 3.27967C1.34743 3.38467 1.26993 3.61967 1.04493 3.60467C0.829932 3.59467 0.734932 3.39467 0.769932 3.33467L1.44993 1.86967C1.49743 1.79217 1.48743 1.55217 1.30743 1.46967C1.18243 1.41467 0.972432 1.41967 0.877432 1.50467C0.824932 1.53967 0.794932 1.60967 0.799932 1.66717C0.804932 1.72467 0.899932 1.95717 0.769932 2.06717C0.902432 2.02467 0.914932 2.04217 1.03243 2.11967C0.867432 1.91967 0.877432 1.91217 0.902432 1.79467C1.02243 1.83467 1.19993 1.81967 1.19993 1.76467C1.19993 1.71467 1.14993 1.62717 1.07993 1.66217C1.00993 1.69717 1.12993 1.73967 1.04493 1.73967C0.962432 1.73967 0.902432 1.72217 0.902432 1.66217C0.902432 1.60217 0.984932 1.53217 1.10243 1.53217C1.21993 1.53217 1.36743 1.59217 1.34243 1.80717C1.31743 2.02467 0.617432 3.23217 0.617432 3.37717C0.617432 3.52717 0.747432 3.71717 1.09243 3.71717C1.31743 3.73467 1.39993 3.49717 1.47993 3.41717H1.47743Z" fill="#FFE400"/>
<path fill-rule="evenodd" clip-rule="evenodd" d="M1.50502 0.32548C1.58752 0.24548 1.56002 0.11298 1.78752 0.13048C2.13252 0.13048 2.14252 0.34048 2.14252 0.48798C2.14252 0.63548 1.62502 0.84048 1.60002 1.05798C1.57502 1.27548 1.72002 1.33298 1.84002 1.33298C1.95752 1.33298 2.04002 1.26548 2.04002 1.20548C2.04002 1.14548 1.98502 1.12548 1.90002 1.12548C1.81502 1.12548 1.93752 1.16798 1.86502 1.20048C1.79252 1.23298 1.74502 1.15048 1.74502 1.10048C1.74502 1.04548 1.92502 1.02798 2.04502 1.06798C2.07002 0.95048 2.08002 0.94298 1.91252 0.74298C2.03252 0.82048 2.04252 0.83798 2.17502 0.79298C2.04252 0.90798 2.14252 1.13798 2.14502 1.19548C2.14752 1.25298 2.12002 1.32298 2.07002 1.35798C1.97002 1.45048 1.76252 1.45048 1.63752 1.39548C1.45502 1.31548 1.44502 1.07548 1.49252 0.99548L2.00002 0.48298C2.03502 0.42298 2.05002 0.25298 1.83502 0.24548C1.61002 0.22798 1.53002 0.53548 1.49002 0.63798C1.43752 0.52548 1.37752 0.21548 1.15002 0.23298C0.93502 0.24048 0.89502 0.40798 0.93002 0.47048L1.44752 0.99548C1.49752 1.07548 1.48752 1.31548 1.30502 1.39548C1.18002 1.45298 0.97252 1.44798 0.87752 1.36048C0.82252 1.32548 0.79252 1.25798 0.79752 1.19798C0.80252 1.13798 0.90002 0.91048 0.77002 0.79798C0.90002 0.84048 0.91252 0.82298 1.03002 0.74798C0.86502 0.94548 0.87752 0.95298 0.90002 1.07298C1.02002 1.03298 1.20002 1.04798 1.20002 1.10048C1.20002 1.15298 1.15002 1.24048 1.07752 1.20548C1.00752 1.17048 1.12752 1.12798 1.04252 1.12798C0.96002 1.12798 0.90002 1.14548 0.90002 1.20298C0.90002 1.26048 0.98252 1.33548 1.10252 1.33548C1.22252 1.33548 1.36502 1.27548 1.34002 1.05798C1.31502 0.84048 0.79002 0.60548 0.79002 0.45798C0.79002 0.30798 0.82502 0.13048 1.17002 0.13048C1.39502 0.11298 1.42252 0.24548 1.50502 0.32548Z" fill="#FFE400"/>
<path d="M11.0379 5.14608C11.0379 3.9576 10.0213 2.99414 8.76726 2.99414C7.5132 2.99414 6.49658 3.9576 6.49658 5.14608C6.49658 6.33457 7.5132 7.29803 8.76726 7.29803C10.0213 7.29803 11.0379 6.33457 11.0379 5.14608Z" fill="#FFE400"/>
<path fill-rule="evenodd" clip-rule="evenodd" d="M8.66034 1.71165C8.63899 1.71165 8.5376 2.42674 8.50024 2.58684C8.46289 2.94705 8.98053 2.93371 8.89514 2.5735L8.66034 1.70898V1.71165ZM8.84178 8.64377C8.86046 8.64377 9.01521 7.93668 9.06591 7.77925C9.12728 7.42438 8.60964 7.4057 8.66567 7.76858L8.84178 8.64377ZM5.22363 5.13235C5.22363 5.15103 5.96807 5.30045 6.1335 5.34848C6.50706 5.40985 6.53374 4.92156 6.14951 4.97492L5.22363 5.13502V5.13235ZM12.4733 5.21773C12.4733 5.19906 11.7208 5.07632 11.5527 5.03362C11.1765 4.98826 11.1738 5.47655 11.5527 5.40985L12.4733 5.21773ZM5.98675 2.86434C5.97341 2.87768 6.46437 3.43267 6.56309 3.56875C6.81925 3.83558 7.15811 3.46202 6.81925 3.28058L5.98675 2.867V2.86434ZM11.6194 7.42704C11.6328 7.4137 11.0938 6.9014 10.9817 6.77599C10.7015 6.53051 10.4 6.92808 10.7522 7.08284L11.6194 7.42971V7.42704ZM7.11008 2.09054C7.09407 2.09855 7.32354 2.78696 7.3609 2.94972C7.48898 3.28859 7.95325 3.06712 7.71311 2.77628L7.11275 2.09054H7.11008ZM10.3947 8.29156C10.4134 8.28355 10.2346 7.5818 10.2106 7.41904C10.1065 7.07217 9.62891 7.25894 9.84504 7.56846L10.3974 8.28889L10.3947 8.29156ZM11.2032 2.57083C11.1872 2.55749 10.5948 3.01376 10.4507 3.10448C10.1652 3.34462 10.5521 3.67015 10.7496 3.35263L11.2032 2.57083ZM6.32028 7.73923C6.33362 7.75257 6.96066 7.33899 7.11008 7.25628C7.4116 7.03748 7.05138 6.68527 6.82992 6.98945L6.32295 7.73923H6.32028ZM5.3864 3.89428C5.37839 3.91029 6.02678 4.28651 6.16819 4.38524C6.50172 4.55868 6.69651 4.10507 6.31495 4.03303L5.3864 3.89428ZM12.1557 6.51984C12.1637 6.50383 11.542 6.08491 11.4086 5.97818C11.0884 5.78073 10.8616 6.221 11.2379 6.31705L12.1557 6.51984ZM10.0051 1.90643C9.98646 1.9011 9.61557 2.53081 9.51684 2.66689C9.51703 2.71034 9.53081 2.75265 9.55625 2.78788C9.5817 2.8231 9.61753 2.84948 9.65873 2.86331C9.69993 2.87714 9.74442 2.87773 9.78597 2.865C9.82751 2.85226 9.86403 2.82684 9.8904 2.79229L10.0051 1.90643ZM7.49965 8.42497C7.51833 8.43297 7.93457 7.82728 8.0413 7.69654C8.23608 7.38702 7.76381 7.18957 7.67575 7.54712L7.49965 8.42497ZM5.43176 6.57587C5.43976 6.59188 6.17887 6.41578 6.3523 6.38909C6.71518 6.2877 6.5124 5.83944 6.19221 6.04756L5.43176 6.57587ZM12.1584 3.83558C12.1531 3.81957 11.4033 3.94498 11.2299 3.96099C10.8563 4.03837 11.0297 4.49997 11.3633 4.3132L12.1584 3.83558Z" fill="#FFE400"/>
<path fill-rule="evenodd" clip-rule="evenodd" d="M9.397 1.75657C9.37832 1.75391 9.12751 2.43431 9.0528 2.58373C8.9434 2.9306 9.45304 3.01599 9.44503 2.64777L9.39967 1.75391L9.397 1.75657ZM8.1029 8.58463C8.12158 8.58996 8.42309 7.92557 8.50848 7.77882C8.64189 7.44262 8.14026 7.32521 8.12158 7.69076L8.10023 8.58463H8.1029ZM7.84408 1.82328C7.8254 1.82862 7.89478 2.54904 7.89478 2.71448C7.94548 3.06935 8.44444 2.94661 8.27901 2.61575L7.84408 1.82328ZM9.65849 8.5446C9.67717 8.54194 9.65849 7.81884 9.67183 7.65341C9.64782 7.29319 9.13818 7.38391 9.28227 7.72545L9.65582 8.5446H9.65849ZM6.55799 2.42097C6.54198 2.43164 6.89685 3.06935 6.96356 3.22144C7.15567 3.53363 7.56925 3.24012 7.27841 2.99197L6.55799 2.42097ZM10.9553 7.96826C10.9713 7.95759 10.6618 7.29586 10.6084 7.1411C10.4403 6.81825 10.008 7.08507 10.2775 7.34923L10.9553 7.96826ZM5.61876 3.3175C5.60809 3.33351 6.18176 3.80846 6.30183 3.9312C6.59801 4.15533 6.87284 3.73908 6.50996 3.60834L5.61876 3.3175ZM11.8678 7.04505C11.8785 7.02904 11.3422 6.51673 11.2301 6.38866C10.9526 6.14585 10.6484 6.54342 11.0006 6.69817L11.8678 7.04505ZM5.20785 4.4355C5.20252 4.45418 5.9096 4.72367 6.06436 4.80105C6.42191 4.92112 6.53664 4.4435 6.14708 4.43283L5.20785 4.4355ZM12.3428 5.97775C12.3508 5.96174 11.665 5.64688 11.5156 5.55883C11.1687 5.41475 11.0166 5.88436 11.4035 5.92171L12.3428 5.97775ZM5.18384 5.80965C5.18651 5.82566 5.94962 5.81498 6.12306 5.82832C6.50195 5.80965 6.41123 5.32669 6.04835 5.45744L5.18384 5.80965ZM12.3934 4.60893C12.3934 4.59026 11.6303 4.55023 11.4596 4.52622C11.078 4.52088 11.134 5.00917 11.5049 4.89977L12.3934 4.60627V4.60893ZM5.83756 7.23449C5.84823 7.2505 6.5313 6.92498 6.6914 6.86361C7.02226 6.69017 6.71808 6.2926 6.45392 6.56209L5.83756 7.23449ZM11.7691 3.17075C11.7584 3.15474 11.0567 3.4349 10.8886 3.4856C10.5444 3.63769 10.8192 4.05394 11.102 3.80312L11.7691 3.17075ZM6.94755 8.17905C6.96356 8.18706 7.45185 7.63206 7.57459 7.51466C7.80673 7.22916 7.36113 6.98101 7.23038 7.32788L6.94755 8.17905ZM10.6751 2.20751C10.6618 2.19684 10.1334 2.71714 10.0027 2.82654C9.75188 3.09604 10.1788 3.37353 10.3336 3.03733L10.6724 2.20751H10.6751Z" fill="#FFE400"/>
<path fill-rule="evenodd" clip-rule="evenodd" d="M5.29531 6.57921C5.33608 6.71682 5.3419 7.48742 6.16297 8.23051C6.97821 8.96809 8.37578 9.13322 8.37578 9.13322C8.37578 9.13322 8.3816 9.2378 8.28261 9.24331C8.18361 9.25431 7.70611 9.16074 7.46736 9.08918C7.23443 9.02313 7.0248 8.90204 7.00151 8.90754C6.97239 8.91855 6.92581 8.99561 6.85593 8.9846C6.78605 8.97359 6.4483 8.64333 6.2969 8.55526C5.99407 8.30785 5.72597 8.02483 5.49913 7.7131C5.33608 7.46541 5.29531 7.30028 5.24291 7.30028C5.1905 7.30028 4.99833 7.42137 4.99833 7.42137C4.99833 7.42137 4.82364 7.17368 4.67223 6.77736C4.51501 6.38105 4.53248 6.14987 4.56742 6.13336C4.60818 6.11684 4.60818 6.42509 4.72464 6.70581C4.8411 6.99203 5.00415 7.0801 5.00415 7.0801C5.00415 7.0801 4.89934 6.93149 4.81781 6.5627C4.73629 6.1939 4.70135 5.83612 4.75958 5.72604C4.81781 5.61595 4.87022 5.58292 4.87604 5.58843C4.88769 5.59944 4.77705 5.75906 4.85275 6.1829C4.92845 6.60673 5.13227 6.96451 5.17885 6.948C5.22544 6.93149 5.14973 6.84342 5.12062 6.59572C5.0915 6.34803 5.14974 6.1939 5.21379 6.17189C5.24291 6.14987 5.28949 6.4471 5.29531 6.57921ZM4.72464 7.28376C4.56741 7.14616 4.32284 6.66728 4.27043 6.68929C4.2122 6.71682 4.66641 7.40486 4.67806 7.4599C4.6897 7.52595 4.7887 7.7131 4.713 7.68558C4.63729 7.65806 4.09574 7.11863 4.15979 7.22322C4.22385 7.3278 4.63147 7.80117 4.60818 7.82869C4.58488 7.85621 4.27043 7.56448 4.25879 7.60301C4.25296 7.63604 4.56742 7.92227 4.56159 7.95529C4.55577 7.98832 4.35778 7.77365 4.35778 7.81768C4.35778 7.86172 4.56159 8.07639 4.56159 8.10941C4.56159 8.14244 4.3869 7.95529 4.44513 8.05437C4.49754 8.16446 4.64894 8.25803 4.64312 8.29106C4.63729 8.32408 4.51501 8.24702 4.51501 8.26353C4.51501 8.28005 4.74211 8.35711 4.79452 8.41766C4.85275 8.4782 5.22544 8.88552 5.50495 9.08918C5.78446 9.29285 6.58806 9.65063 6.64629 9.65063C6.6987 9.65063 6.78023 9.54054 6.76276 9.49651C6.74529 9.45247 5.95916 9.19927 5.7437 9.01212C5.52242 8.82498 4.98669 8.37362 4.9401 8.3516C4.89934 8.32408 4.77705 8.33509 4.77705 8.30757C4.77705 8.28005 4.93428 8.32408 4.92263 8.30757C4.91681 8.29106 4.70717 8.20299 4.713 8.18647C4.72464 8.16996 4.85858 8.2195 4.85858 8.20299C4.85858 8.18647 4.614 8.05987 4.62565 8.03235C4.63147 8.00483 4.80617 8.10941 4.80617 8.08739C4.80617 8.07639 4.57324 7.92227 4.57906 7.89474C4.58488 7.86722 4.75958 8.01584 4.75376 7.98281C4.74793 7.94979 4.614 7.76264 4.614 7.74062C4.614 7.7131 4.82364 7.92777 4.84693 7.88374C4.85857 7.84521 4.77123 7.48742 4.77705 7.48192C4.78287 7.47641 4.93428 7.55898 4.95757 7.50944C4.98668 7.4544 4.85275 7.38284 4.72464 7.28376ZM7.40913 9.9919C7.29849 10.0084 7.24608 9.96988 7.31014 9.88181C7.39748 9.88181 7.63041 9.81025 7.71194 9.77723C7.79346 9.7442 7.88081 9.70017 7.95069 9.63962C8.02057 9.56806 8.06715 9.67815 8.02639 9.7387C7.99727 9.77723 7.86334 9.84878 7.76434 9.88731C7.61876 9.93135 7.49065 9.9974 7.40913 9.9919ZM8.13703 9.71117C8.06133 9.63411 8.12538 9.57907 8.23602 9.51852C8.39907 9.43596 8.35249 9.32037 8.56212 9.22679C8.65529 9.17175 9.95969 8.67636 10.3848 8.41215C10.8099 8.14794 12.0036 7.29477 12.3239 6.70581C12.6384 6.12235 12.4869 6.07831 12.5335 6.0563C12.5743 6.02877 12.6209 6.13886 12.6151 6.27097C12.6034 6.39757 12.4986 6.78287 12.5335 6.8214C12.5685 6.85993 13.011 6.51866 13.1974 6.10584C13.3837 5.69301 13.5235 5.26367 13.6108 5.26367C13.704 5.26367 13.4594 5.96823 13.3022 6.24344C13.1508 6.51866 12.9703 6.65627 13.011 6.71682C13.0576 6.77186 13.5118 6.41408 13.6691 6.14987C13.8205 5.88016 13.966 5.64347 13.9952 5.69301C13.9488 6.01545 13.8143 6.32089 13.605 6.57921C13.3604 6.84342 13.0693 7.03607 13.1159 7.0746C13.1566 7.11863 13.4885 7.16267 13.8321 6.94249C14.1815 6.71682 14.2164 6.39206 14.2572 6.40857C14.3038 6.42509 14.2164 6.87094 13.8845 7.14616C13.5526 7.42137 13.1159 7.44889 13.1275 7.50944C13.1508 7.56448 14.0767 7.25624 14.0592 7.3278C14.0417 7.39385 12.8596 7.8342 12.848 7.87823C12.848 7.91126 13.0518 7.92227 13.3721 7.85071C13.6865 7.78466 13.9893 7.54797 14.0301 7.60301C14.0417 7.68007 13.803 7.86722 13.442 7.95529C13.0751 8.04336 12.8946 8.15895 12.8829 8.18647C12.8771 8.214 13.5351 8.10941 13.5351 8.14244C13.5351 8.17546 12.6733 8.33509 12.6675 8.37913C12.6558 8.41766 13.4827 8.2195 13.4711 8.26904C13.4478 8.30757 12.3472 8.61581 12.3588 8.63233C12.3647 8.65434 13.2789 8.44518 13.2614 8.4782C13.2381 8.51673 11.7241 8.91855 11.7125 8.94607C11.7008 8.96809 13.0518 8.65985 13.0402 8.68737C13.0285 8.71489 12.3414 8.87452 12.3414 8.89103C12.3414 8.90754 12.8946 8.80846 12.8829 8.83598C12.8771 8.858 11.4854 9.19377 11.4562 9.24331C11.4271 9.29835 12.1783 9.1057 12.1667 9.20478C12.155 9.30385 10.5536 9.81025 10.5478 9.71668C10.5362 9.6231 11.5203 9.38642 11.5145 9.3589C11.5028 9.33138 10.9496 9.41394 10.938 9.3644C10.9322 9.30936 11.3048 9.19927 11.2757 9.17725C11.2466 9.14973 10.9671 9.25431 10.9904 9.19377C11.0195 9.13322 11.5494 8.90204 11.5378 8.88552C11.5319 8.86901 11.3456 8.94057 11.3631 8.88552C11.3864 8.82498 12.5102 8.51673 12.4928 8.4782C12.4753 8.44518 11.9745 8.55526 11.9279 8.56627C11.9105 8.53325 12.6267 8.28005 12.6151 8.23601C12.5918 8.19748 12.2307 8.38463 12.2074 8.33509C12.1958 8.28005 12.8422 8.04336 12.8014 8.00483C12.7606 7.9663 12.4695 8.10391 12.4287 8.06538C12.388 8.02685 13.0402 7.60301 12.9412 7.592C12.8422 7.5865 12.7199 7.72411 12.7082 7.63604C12.7199 7.52595 13.2148 7.34431 13.1042 7.25624C12.9295 7.2067 12.3414 7.29477 12.0968 7.43238C11.8522 7.56999 11.037 8.33509 10.839 8.45619C10.641 8.57178 9.96551 8.84149 9.8374 8.89653C9.63941 8.96258 9.60447 9.06166 9.40066 9.16074C9.0338 9.25431 9.03962 9.3589 8.86493 9.41944C8.80087 9.43596 8.14285 9.73319 8.13703 9.71117ZM7.21697 10.0965C7.10632 10.1515 7.00733 10.2836 7.07139 10.3387C7.10632 10.4047 7.21697 10.1901 7.30431 10.2011L7.77017 10.2231C8.02056 10.2396 8.14285 10.1735 8.28261 10.1845C8.42236 10.1956 8.73099 10.113 8.87657 10.113C9.02215 10.113 9.05127 10.1295 9.06291 10.069C9.08038 10.0139 8.60871 10.0524 8.39907 10.0469C8.18944 10.0359 7.92739 10.0855 7.77017 10.0855C7.62459 10.08 7.37419 10.0359 7.21697 10.0965Z" fill="#FFE400"/>
<path d="M7.91576 10.0298C7.91576 9.98423 7.87144 9.94727 7.81677 9.94727C7.76209 9.94727 7.71777 9.98423 7.71777 10.0298C7.71777 10.0754 7.76209 10.1124 7.81677 10.1124C7.87144 10.1124 7.91576 10.0754 7.91576 10.0298Z" fill="#FFE400"/>
<path fill-rule="evenodd" clip-rule="evenodd" d="M10.2393 9.87118C10.3383 9.85467 10.6061 9.94274 10.7925 9.98127C11.1302 10.1079 11.7591 10.0473 11.7591 10.1079C11.7591 10.1684 11.7184 10.24 11.5728 10.251C11.4272 10.262 11.0603 10.1959 11.072 10.1959C11.0836 10.1959 11.3631 10.3225 11.2816 10.3556C11.2001 10.3886 10.9613 10.284 10.9206 10.3115C10.8798 10.339 11.1419 10.3886 11.0953 10.4051C11.0603 10.4216 10.8798 10.3831 10.8216 10.3886C10.7633 10.3996 10.8682 10.4601 10.7983 10.4822C10.7284 10.5097 10.6119 10.4491 10.5654 10.4656C10.5129 10.4822 10.6702 10.5757 10.6003 10.5867C10.5304 10.5977 10.3674 10.5427 10.2742 10.5317C10.181 10.5317 10.3615 10.6198 10.3033 10.6308C10.2451 10.6363 10.082 10.5592 10.0413 10.5592C10.0005 10.5592 10.0413 10.6693 9.98304 10.6693C9.92481 10.6693 9.85493 10.5757 9.81999 10.5757C9.78505 10.5757 9.81999 10.6858 9.76176 10.6858C9.70352 10.6858 9.68023 10.5702 9.63365 10.5757C9.57542 10.5867 9.63365 10.7243 9.55212 10.7133C9.47642 10.7078 9.46477 10.5702 9.40072 10.5757C9.34249 10.5867 9.41236 10.7133 9.35413 10.7133C9.2959 10.7133 9.28426 10.5867 9.22602 10.5757C9.16779 10.5702 9.19108 10.6968 9.15614 10.6968C9.12121 10.6968 9.08627 10.5757 9.06297 10.5757C9.0455 10.5757 9.06297 10.6968 8.9931 10.6858C8.92322 10.6748 8.92322 10.5537 8.90575 10.5592C8.88245 10.5702 8.88245 10.6583 8.83587 10.6583C8.78928 10.6583 8.78346 10.5702 8.76599 10.5812C8.7427 10.5867 8.67282 10.6968 8.62623 10.6803C8.57382 10.6638 8.63788 10.5757 8.61459 10.5757C8.59129 10.5757 8.53306 10.6363 8.49812 10.6308C8.46318 10.6253 8.49812 10.5537 8.48648 10.5537C8.47483 10.5537 8.38748 10.5977 8.34672 10.5977C8.30596 10.5977 8.19532 10.6528 8.1662 10.6033C8.13708 10.5482 8.2419 10.5482 8.2652 10.4987C8.28267 10.4491 8.20696 10.3005 8.28849 10.251C8.36419 10.1959 8.61459 10.3225 8.98727 10.2345C9.66276 10.0638 10.1869 9.86568 10.2393 9.87118Z" fill="#FFE400"/>
</svg>
