<svg width="16" height="12" viewBox="0 0 16 12" fill="none" xmlns="http://www.w3.org/2000/svg">
<path fill-rule="evenodd" clip-rule="evenodd" d="M0 0H16V12H0V0Z" fill="#BE0027"/>
<path fill-rule="evenodd" clip-rule="evenodd" d="M4.47256 6.11953C4.79131 5.73047 5.45459 6.11015 5.996 5.83125C5.35381 5.8664 5.00459 5.52187 4.49834 5.57109C5.02334 5.24765 5.471 5.67656 6.05693 5.50547C5.28115 5.43984 5.31397 5.09062 4.60615 5.04141C5.23428 4.77422 5.54365 5.31797 6.16006 5.19375C5.4335 5.02734 5.33975 4.60078 4.80068 4.50937C5.58818 4.39219 5.53662 4.85625 6.30772 4.9125C5.5249 4.57734 5.72881 4.28437 5.0749 4.02891C5.8085 4.0125 5.75928 4.52109 6.50459 4.65234C5.86709 4.24922 5.94443 3.88125 5.42178 3.59297C6.04287 3.60469 6.10147 4.23984 6.73662 4.43672C6.17178 3.98906 6.31943 3.60937 5.83193 3.20859C6.45068 3.35391 6.35928 3.90234 7.00381 4.25391C6.52569 3.72422 6.7085 3.34453 6.29365 2.91094C6.88897 3.10078 6.66162 3.62344 7.27803 4.12031C6.92647 3.53672 7.14444 3.16406 6.79522 2.67422C7.34834 2.95781 7.08115 3.49219 7.59209 4.02187C7.35069 3.42422 7.59209 3.05391 7.346 2.52422C7.81944 2.87578 7.53819 3.44531 7.92022 3.98906C7.77959 3.23906 8.10303 3.11719 8.00225 2.46094C8.36084 2.90156 7.96006 3.34219 8.23662 3.99141C8.20147 3.25312 8.59522 3.08203 8.52725 2.49141C8.88116 3.02109 8.32803 3.48281 8.56006 4.05C8.61866 3.35156 9.07803 3.16875 9.08506 2.625C9.36631 3.12422 8.75694 3.48516 8.85537 4.14844C9.05459 3.41719 9.54444 3.32812 9.60537 2.83594C9.77178 3.4125 9.10381 3.67969 9.14366 4.32187C9.34287 3.67266 9.95459 3.59531 10.0812 3.11719C10.1585 3.72656 9.55616 3.83672 9.38506 4.51172C9.70147 3.96094 10.2569 3.91641 10.5054 3.48047C10.4866 4.08516 9.80694 4.16484 9.59834 4.72969C9.98975 4.24922 10.4819 4.33125 10.8733 3.90703C10.8312 4.45312 10.1398 4.42266 9.77178 4.9875C10.196 4.59609 10.8358 4.71328 11.1616 4.37578C11.1452 4.85859 10.2968 4.82109 9.896 5.25469C10.3882 4.98281 11.0163 5.14219 11.3773 4.8914C11.3116 5.31328 10.4163 5.21484 9.98741 5.54765C10.578 5.38359 11.0351 5.63437 11.5108 5.4539C11.2788 5.86406 10.4655 5.6039 10.0343 5.87109C10.5499 5.78437 11.0937 6.09609 11.5601 5.99531C11.4077 6.35156 10.5148 5.97187 10.0366 6.19453C10.6085 6.18984 10.9812 6.55781 11.5132 6.53203C11.2249 6.85547 10.4421 6.4125 9.98506 6.4875C10.5429 6.60469 10.9694 7.06406 11.3913 7.0875C11.0421 7.35234 10.3952 6.74765 9.86788 6.82265C10.4116 6.96797 10.8663 7.58437 11.1757 7.59844C10.8405 7.82812 10.1796 7.07109 9.72725 7.09922C10.278 7.34765 10.5288 7.97812 10.8921 8.06718C10.4444 8.21015 10.0038 7.38281 9.52334 7.35234C10.0812 7.7039 10.1116 8.24297 10.5405 8.48203C10.0882 8.59218 9.76709 7.65703 9.29131 7.57734C9.74834 7.9125 9.81866 8.63203 10.121 8.85703C9.66162 8.88047 9.49522 7.90312 9.02412 7.7625C9.42725 8.1 9.33116 8.83125 9.64522 9.14531C9.16709 9.04453 9.22803 8.19375 8.72881 7.90547C9.08741 8.36015 8.90459 9.00468 9.13897 9.36797C8.67256 9.18047 8.87412 8.4164 8.43115 7.98515C8.67256 8.46797 8.4124 9.03047 8.60459 9.49687C8.17803 9.28828 8.46397 8.38593 8.13819 8.02734C8.28819 8.58515 8.01162 9.04687 8.12412 9.54609C7.68819 9.04218 8.18975 8.53359 7.8124 8.02031C7.91084 8.60859 7.49834 9.02109 7.56397 9.51328C7.21944 9.11015 7.75147 8.46562 7.48194 7.95703C7.53819 8.53593 7.00615 9.04453 7.04365 9.41015C6.7624 8.9414 7.35537 8.38828 7.196 7.85625C7.16319 8.40937 6.62412 8.70937 6.52334 9.21328C6.34287 8.65781 6.98272 8.25703 6.92647 7.71093C6.74365 8.2289 6.22334 8.4375 6.04053 8.9414C5.89053 8.38593 6.6499 8.09297 6.66865 7.51172C6.43428 8.05547 5.81318 8.17734 5.60693 8.59453C5.52959 8.04375 6.39912 7.79765 6.43194 7.275C6.15068 7.77656 5.471 7.79765 5.23662 8.19609C5.20147 7.64765 6.11787 7.57968 6.26084 7.00547C5.98193 7.43203 5.23662 7.37812 4.9249 7.725C4.97412 7.2164 5.96553 7.18594 6.1249 6.72656C5.75459 7.08281 5.07022 6.9375 4.6835 7.21875C4.89912 6.71719 5.82959 6.82265 6.03818 6.46172C5.62803 6.675 4.89912 6.4664 4.53818 6.68203C4.86631 6.20859 5.58818 6.49219 5.99834 6.1664C5.33272 6.2625 4.93193 5.99765 4.47021 6.11953H4.47256Z" fill="#FFFF00"/>
<path fill-rule="evenodd" clip-rule="evenodd" d="M10.3438 6.00274C10.3438 6.61967 10.0987 7.21135 9.66244 7.64759C9.2262 8.08383 8.63452 8.32891 8.01758 8.32891C7.40064 8.32891 6.80897 8.08383 6.37273 7.64759C5.93648 7.21135 5.69141 6.61967 5.69141 6.00274C5.69141 5.38611 5.93636 4.79473 6.37238 4.35871C6.80841 3.92269 7.39978 3.67773 8.01641 3.67773C8.63304 3.67773 9.22441 3.92269 9.66044 4.35871C10.0965 4.79473 10.3414 5.38611 10.3414 6.00274H10.3438Z" fill="#FFFF00"/>
<path fill-rule="evenodd" clip-rule="evenodd" d="M10.0438 6.00703C10.0438 6.54347 9.83074 7.05794 9.45142 7.43727C9.0721 7.81659 8.55763 8.02969 8.02119 8.02969C7.48475 8.02969 6.97028 7.81659 6.59096 7.43727C6.21164 7.05794 5.99854 6.54347 5.99854 6.00703C5.99854 5.47059 6.21164 4.95612 6.59096 4.5768C6.97028 4.19748 7.48475 3.98438 8.02119 3.98438C8.55763 3.98438 9.0721 4.19748 9.45142 4.5768C9.83074 4.95612 10.0438 5.47059 10.0438 6.00703Z" fill="#BE0027"/>
<path fill-rule="evenodd" clip-rule="evenodd" d="M9.7625 6.01211C9.7625 6.47272 9.57952 6.91446 9.25382 7.24016C8.92813 7.56585 8.48639 7.74883 8.02578 7.74883C7.56517 7.74883 7.12343 7.56585 6.79774 7.24016C6.47204 6.91446 6.28906 6.47272 6.28906 6.01211C6.28906 5.5515 6.47204 5.10976 6.79774 4.78406C7.12343 4.45837 7.56517 4.27539 8.02578 4.27539C8.48639 4.27539 8.92813 4.45837 9.25382 4.78406C9.57952 5.10976 9.7625 5.5515 9.7625 6.01211Z" fill="#FFFF00"/>
<path fill-rule="evenodd" clip-rule="evenodd" d="M6.54692 4.87539C7.02739 4.86367 7.62505 4.9082 8.02114 5.22227C8.4443 4.95817 8.9425 4.84041 9.43911 4.88711L9.69693 5.3582C9.29632 5.32165 8.893 5.3878 8.52505 5.55039C8.78803 5.74434 8.99945 5.99979 9.14083 6.29439C9.2822 6.58898 9.34921 6.91374 9.33599 7.24023C9.27271 7.31992 9.17193 7.40664 9.10865 7.48633C9.2024 6.81836 8.85083 6.07305 8.33755 5.68164C8.75474 6.28164 9.00083 6.8207 8.93286 7.56601L8.69849 7.71601C8.8063 7.05976 8.65161 6.28633 8.16646 5.84101C8.44771 6.25117 8.72427 6.98945 8.55083 7.73945C8.47583 7.76289 8.35864 7.82617 8.28364 7.84726C8.37553 7.53955 8.40048 7.21574 8.35682 6.89759C8.31316 6.57944 8.2019 6.27432 8.03052 6.00273C7.70708 6.4668 7.60161 7.17461 7.78443 7.83086C7.69536 7.80742 7.62739 7.77929 7.53599 7.7582C7.40239 7.05508 7.58755 6.2582 7.90864 5.84336C7.58052 6.0332 7.27349 6.84414 7.36021 7.67148L7.14224 7.5707C7.03677 6.9543 7.31567 6.15039 7.71646 5.68633C7.26177 5.97226 6.89146 6.67773 6.95474 7.43476C6.88442 7.37383 6.82114 7.34336 6.75083 7.28008C6.67114 6.61914 7.05552 5.95351 7.50318 5.55508C7.12583 5.38398 6.80005 5.35117 6.3313 5.3582C6.40396 5.20586 6.47192 5.02773 6.54692 4.87305V4.87539Z" fill="#BE0027"/>
</svg>
