<svg width="24" height="24" viewBox="0 0 24 24" fill="none" xmlns="http://www.w3.org/2000/svg">
<path fill-rule="evenodd" clip-rule="evenodd" d="M12 24C18.6274 24 24 18.6274 24 12C24 5.37258 18.6274 0 12 0C5.37258 0 0 5.37258 0 12C0 18.6274 5.37258 24 12 24Z" fill="#2FBB17"/>
<path fill-rule="evenodd" clip-rule="evenodd" d="M5.63679 10.7072C5.24627 11.0977 5.24627 11.7309 5.63679 12.1214L9.87943 16.3641C10.27 16.7546 10.9031 16.7546 11.2936 16.3641L18.3647 9.29299C18.7552 8.90246 18.7552 8.2693 18.3647 7.87877C17.9742 7.48825 17.341 7.48825 16.9505 7.87877L10.5865 14.2427L7.05101 10.7072C6.66048 10.3167 6.02732 10.3167 5.63679 10.7072Z" fill="white"/>
</svg>
