<svg width="16" height="12" viewBox="0 0 16 12" fill="none" xmlns="http://www.w3.org/2000/svg">
<path d="M0 8H16V12H0V8Z" fill="#1EB53A"/>
<path d="M0 0H16V4H0V0Z" fill="#0099B5"/>
<path d="M0 3.83984H16V8.15984H0V3.83984Z" fill="#CE1126"/>
<path d="M0 4.08008H16V7.92008H0V4.08008Z" fill="white"/>
<path d="M3.35992 3.36047C4.15521 3.36047 4.79992 2.71576 4.79992 1.92047C4.79992 1.12518 4.15521 0.480469 3.35992 0.480469C2.56463 0.480469 1.91992 1.12518 1.91992 1.92047C1.91992 2.71576 2.56463 3.36047 3.35992 3.36047Z" fill="white"/>
<path d="M3.8399 3.36047C4.63519 3.36047 5.2799 2.71576 5.2799 1.92047C5.2799 1.12518 4.63519 0.480469 3.8399 0.480469C3.04461 0.480469 2.3999 1.12518 2.3999 1.92047C2.3999 2.71576 3.04461 3.36047 3.8399 3.36047Z" fill="#0099B5"/>
<path d="M6.52748 2.78516L6.43628 3.05876L6.57548 3.10676" fill="white"/>
</svg>
