<svg width="16" height="16" viewBox="0 0 16 16" fill="none" xmlns="http://www.w3.org/2000/svg">
    <path d="M8 10C9.10457 10 10 9.10457 10 8C10 6.89543 9.10457 6 8 6C6.89543 6 6 6.89543 6 8C6 9.10457 6.89543 10 8 10Z" fill="#9A9CA3"/>
    <path fill-rule="evenodd" clip-rule="evenodd" d="M8 13.5C3.58172 13.5 0 8 0 8C0 8 3.58172 2.5 8 2.5C12.4183 2.5 16 8 16 8C16 8 12.4183 13.5 8 13.5ZM3.72047 6.70016C3.24541 7.15136 2.83449 7.6063 2.50595 8C2.83449 8.3937 3.24541 8.84864 3.72047 9.29984C5.06806 10.5797 6.58407 11.5 8 11.5C9.41593 11.5 10.9319 10.5797 12.2795 9.29984C12.7546 8.84864 13.1655 8.3937 13.494 8C13.1655 7.6063 12.7546 7.15136 12.2795 6.70016C10.9319 5.42026 9.41593 4.5 8 4.5C6.58407 4.5 5.06806 5.42026 3.72047 6.70016Z" fill="#9A9CA3"/>
</svg>
