<svg width="24" height="24" viewBox="0 0 24 24" fill="none" xmlns="http://www.w3.org/2000/svg">
<path fill-rule="evenodd" clip-rule="evenodd" d="M24 12C24 18.6274 18.6274 24 12 24C5.37258 24 0 18.6274 0 12C0 5.37258 5.37258 0 12 0C18.6274 0 24 5.37258 24 12ZM13.1528 14.9165H10.6919L10.3433 4.57031H13.5015L13.1528 14.9165ZM11.9224 16.5366C12.4214 16.5366 12.823 16.6836 13.1272 16.9775C13.4314 17.2715 13.5835 17.6475 13.5835 18.1055C13.5835 18.5566 13.4314 18.9292 13.1272 19.2231C12.823 19.5171 12.4214 19.6641 11.9224 19.6641C11.4302 19.6641 11.032 19.5171 10.7278 19.2231C10.4236 18.9292 10.2715 18.5566 10.2715 18.1055C10.2715 17.6543 10.4236 17.28 10.7278 16.9827C11.032 16.6853 11.4302 16.5366 11.9224 16.5366Z" fill="white"/>
</svg>
